<?xml version="1.0" standalone="no"?>
<!DOCTYPE svg PUBLIC "-//W3C//DTD SVG 20010904//EN"
 "http://www.w3.org/TR/2001/REC-SVG-20010904/DTD/svg10.dtd">
<svg version="1.0" xmlns="http://www.w3.org/2000/svg"
 width="700.000000pt" height="700.000000pt" viewBox="0 0 700.000000 700.000000"
 preserveAspectRatio="xMidYMid meet">
<metadata>
Created by potrace 1.14, written by Peter Selinger 2001-2017
</metadata>
<g transform="translate(0.000000,700.000000) scale(0.100000,-0.100000)"
fill="#000000" stroke="none">
<path d="M4885 6950 c-82 -28 -175 -65 -205 -82 -132 -73 -265 -171 -333 -243
-45 -48 -161 -290 -327 -680 -198 -468 -241 -597 -241 -720 0 -44 -4 -120 -10
-170 -20 -190 -15 -268 19 -315 l19 -25 -251 0 c-221 0 -361 -6 -461 -19 -16
-2 -56 -7 -88 -10 -48 -5 -194 -31 -357 -62 -19 -4 -33 -4 -30 -1 3 3 55 15
115 27 155 30 146 26 130 58 -8 15 -39 88 -70 162 -164 390 -217 480 -456 775
-173 212 -613 665 -704 724 -94 61 -237 92 -439 95 -148 3 -239 -9 -313 -40
-64 -27 -72 -37 -89 -120 -1 -5 -20 -75 -42 -155 -75 -267 -100 -358 -206
-759 -32 -118 -64 -240 -72 -270 -9 -30 -17 -66 -20 -80 -3 -14 -11 -47 -19
-75 -8 -27 -32 -126 -55 -220 -22 -93 -43 -177 -45 -185 -47 -191 -177 -832
-192 -948 l-5 -43 34 14 c69 29 256 148 393 250 96 72 256 231 348 347 37 47
71 90 75 95 30 38 139 209 195 306 57 99 177 340 177 354 0 2 11 28 24 57 31
69 95 240 111 298 7 25 25 86 40 135 15 50 28 97 30 105 2 8 8 33 14 55 5 22
12 54 15 70 12 68 46 181 46 152 0 -3 -7 -34 -14 -69 -8 -35 -17 -74 -20 -88
-20 -110 -120 -445 -172 -577 -160 -405 -347 -724 -579 -988 -158 -180 -238
-245 -556 -447 -31 -20 -84 -50 -118 -67 l-61 -31 4 27 c3 16 8 44 11 63 9 56
54 303 82 445 14 72 27 141 29 155 5 22 49 230 59 271 2 9 15 65 30 125 14 60
28 117 30 127 2 10 7 27 10 37 3 10 8 28 10 40 6 32 61 247 101 395 34 123 44
162 109 400 15 55 41 147 57 205 17 58 31 112 33 120 2 8 24 92 50 185 26 94
54 193 62 222 11 41 20 54 46 66 134 64 289 77 533 44 189 -26 221 -40 360
-164 336 -298 680 -697 890 -1033 38 -61 118 -240 212 -475 41 -102 64 -133
82 -105 23 36 8 98 -90 359 -112 301 -172 427 -264 555 -61 84 -220 272 -323
381 -27 28 -84 91 -128 140 -241 270 -424 408 -640 481 -75 25 -93 27 -285 29
-193 3 -210 2 -289 -21 -104 -30 -209 -82 -233 -115 -10 -13 -21 -38 -24 -54
-9 -55 -65 -269 -105 -404 -21 -74 -50 -182 -63 -240 -110 -477 -210 -919
-221 -971 -2 -8 -24 -107 -48 -220 -43 -192 -73 -332 -83 -390 -3 -14 -14 -65
-26 -115 -11 -49 -21 -101 -23 -115 -13 -86 -28 -188 -30 -205 -1 -11 -6 -45
-9 -75 -4 -30 -14 -95 -22 -145 -7 -49 -14 -93 -14 -97 0 -10 54 -19 112 -19
59 0 153 20 211 45 81 35 267 155 379 243 62 50 362 353 406 411 28 37 113
171 190 297 123 204 216 352 226 362 2 2 15 -16 29 -40 48 -82 233 -237 390
-326 32 -18 57 -34 55 -36 -2 -1 -32 -15 -68 -31 -146 -64 -351 -193 -475
-298 -310 -263 -472 -556 -479 -871 -5 -195 62 -360 233 -570 36 -44 70 -85
76 -91 384 -404 384 -404 385 -429 0 -11 -23 -58 -51 -105 -121 -204 -130
-229 -125 -363 5 -112 21 -184 65 -285 43 -98 55 -122 64 -122 4 0 7 -6 7 -12
0 -7 20 -40 45 -73 199 -265 537 -483 948 -610 55 -17 91 -34 94 -44 55 -167
183 -285 394 -362 382 -140 892 -102 1179 87 78 52 94 66 143 126 38 47 77
138 77 181 0 20 11 28 73 52 504 196 849 492 977 838 28 77 41 143 45 230 5
117 -10 159 -125 352 -26 44 -50 89 -54 100 -7 23 24 61 214 259 188 195 221
233 295 331 75 101 146 239 170 332 35 139 14 350 -51 511 -122 300 -404 584
-774 780 -92 49 -366 168 -462 201 l-48 16 58 61 c91 97 105 115 146 182 20
34 43 68 50 75 48 48 114 185 98 203 -20 22 43 -26 218 -166 235 -187 277
-220 306 -240 12 -8 66 -47 120 -86 286 -204 486 -292 749 -331 72 -10 159 -9
235 3 83 13 228 68 237 90 3 7 -26 73 -65 146 -38 73 -104 201 -147 283 -65
125 -177 313 -455 763 -20 31 -71 116 -115 187 -43 72 -83 132 -87 133 -4 2
-8 7 -8 12 0 21 -148 254 -247 386 -60 82 -176 241 -258 354 -89 124 -180 237
-229 285 -73 73 -88 83 -146 99 -127 36 -177 32 -345 -24z m338 -186 c64 -42
74 -54 239 -284 85 -118 188 -262 230 -320 189 -264 578 -831 578 -844 0 -2
27 -44 60 -94 33 -51 60 -94 60 -97 0 -3 8 -18 19 -33 10 -15 45 -72 77 -127
60 -103 258 -431 300 -497 13 -21 24 -42 24 -48 0 -5 4 -10 9 -10 5 0 11 -9
14 -20 6 -23 5 -23 -43 -11 -19 5 -52 12 -74 16 -21 3 -36 8 -34 11 3 2 25 0
51 -5 25 -4 51 -5 57 -1 14 9 -18 70 -154 290 -49 80 -97 159 -106 175 -25 44
-194 320 -285 465 -43 69 -121 188 -173 265 -121 178 -121 177 -222 319 -47
65 -92 128 -100 141 -25 39 -108 152 -230 314 -63 84 -122 163 -130 175 -57
84 -166 207 -198 222 -63 32 -163 24 -325 -25 -211 -63 -297 -99 -332 -138
-63 -71 -188 -300 -318 -583 -82 -179 -225 -604 -251 -745 -2 -11 -9 -40 -16
-65 -7 -25 -14 -54 -16 -65 -2 -11 -8 -42 -14 -70 -5 -27 -12 -63 -15 -80 -10
-51 -18 -212 -12 -237 8 -29 44 -48 92 -48 19 0 35 -5 35 -11 0 -5 -4 -8 -8
-5 -5 3 -33 6 -63 7 -30 1 -58 4 -64 6 -6 2 -9 56 -7 143 2 126 7 156 48 322
113 459 201 705 390 1083 144 290 180 357 201 372 41 31 380 145 493 167 14 2
58 3 98 1 60 -3 81 -8 115 -31z m-681 -742 c-20 -21 -61 -68 -91 -105 -58 -71
-78 -89 -39 -34 50 71 146 177 159 177 5 0 -8 -17 -29 -38z m200 -169 c223
-334 282 -408 528 -653 431 -430 777 -631 1315 -766 50 -12 82 -23 73 -23 -29
-2 -320 76 -419 112 -99 36 -266 116 -338 161 -22 14 -43 26 -47 26 -3 0 -30
16 -60 35 -30 19 -80 52 -111 72 -192 124 -532 453 -728 703 -65 83 -205 284
-205 294 0 7 -57 97 -112 180 -22 32 -35 56 -30 52 5 -3 66 -90 134 -193z
m-2902 -21 c25 -12 56 -32 70 -43 25 -20 -77 32 -115 59 -25 17 -14 13 45 -16z
m2453 -197 c-3 -9 -8 -14 -10 -11 -3 3 -2 9 2 15 9 16 15 13 8 -4z m-2192 -12
c13 -16 12 -17 -3 -4 -10 7 -18 15 -18 17 0 8 8 3 21 -13z m2138 -149 c-24
-71 -47 -133 -51 -139 -10 -11 -6 3 48 163 20 62 39 110 41 108 2 -2 -15 -62
-38 -132z m-2016 6 c27 -31 137 -185 162 -225 31 -50 1 -15 -51 60 -26 39 -83
114 -126 167 -43 53 -78 100 -78 103 0 4 16 -13 36 -37 20 -23 45 -54 57 -68z
m1949 -222 c-6 -6 -7 0 -4 19 5 21 7 23 10 9 2 -10 0 -22 -6 -28z m784 -45
c35 -74 42 -159 16 -209 -18 -35 -257 -399 -282 -429 -7 -8 -40 -3 -122 18
-62 16 -167 40 -233 52 -113 22 -129 34 -20 15 66 -11 78 3 21 25 -67 26 -50
29 20 4 32 -11 79 -20 104 -20 l45 -1 -30 -12 c-37 -16 -29 -21 87 -51 l93
-24 44 47 c56 60 191 264 232 350 39 84 48 156 25 217 -10 25 -22 45 -27 45
-6 0 -21 -24 -35 -52 -14 -29 -23 -42 -19 -28 3 14 8 41 11 60 3 19 8 46 10
60 6 25 6 25 21 5 8 -11 26 -43 39 -72z m-795 4 c-10 -9 -11 -8 -5 6 3 10 9
15 12 12 3 -3 0 -11 -7 -18z m-1712 -59 c13 -21 20 -38 18 -38 -3 0 -20 24
-37 53 -18 28 -25 45 -18 37 8 -8 25 -32 37 -52z m1708 20 c-3 -8 -6 -5 -6 6
-1 11 2 17 5 13 3 -3 4 -12 1 -19z m-10 -60 c-3 -7 -5 -2 -5 12 0 14 2 19 5
13 2 -7 2 -19 0 -25z m-1629 -95 c12 -28 22 -58 22 -65 0 -7 -12 16 -27 52
-14 36 -29 69 -34 75 -5 5 -9 14 -9 19 0 17 25 -25 48 -81z m-819 -5 c67 -93
100 -129 186 -207 33 -30 45 -44 27 -32 -55 38 -175 162 -226 234 -27 37 -50
67 -51 65 -2 -2 -12 -25 -22 -53 -22 -56 -21 -110 1 -152 14 -29 108 -120 162
-158 15 -11 88 -66 161 -122 74 -57 141 -107 151 -112 12 -6 52 2 136 30 136
45 181 52 61 9 -44 -15 -102 -37 -128 -49 -27 -11 -52 -21 -55 -21 -4 0 -32
23 -62 50 -30 27 -63 52 -72 56 -10 3 -18 9 -18 13 0 4 -26 25 -57 47 -105 70
-238 171 -266 201 -43 46 -57 106 -41 171 13 50 40 112 49 112 2 0 31 -37 64
-82z m2438 15 c-3 -10 -5 -4 -5 12 0 17 2 24 5 18 2 -7 2 -21 0 -30z m699 0
c-8 -15 -15 -25 -16 -21 0 12 23 58 27 54 3 -2 -2 -17 -11 -33z m-26 -53 c-6
-11 -13 -20 -16 -20 -2 0 0 9 6 20 6 11 13 20 16 20 2 0 0 -9 -6 -20z m-40
-64 c0 -2 -8 -10 -17 -17 -16 -13 -17 -12 -4 4 13 16 21 21 21 13z m-537 -175
c26 -13 46 -25 43 -28 -5 -6 -86 35 -109 56 -11 8 -24 25 -29 36 -7 12 1 7 18
-11 16 -16 51 -41 77 -53z m428 56 c-10 -9 -11 -8 -5 6 3 10 9 15 12 12 3 -3
0 -11 -7 -18z m-2192 -23 c-34 -35 -118 -94 -134 -94 -4 0 18 17 51 39 32 21
70 50 83 65 14 14 27 26 30 26 3 0 -11 -16 -30 -36z m-449 -61 c0 -7 -39 17
-46 28 -3 6 5 3 20 -6 14 -10 26 -19 26 -22z m40 -13 c8 -5 11 -10 5 -10 -5 0
-17 5 -25 10 -8 5 -10 10 -5 10 6 0 17 -5 25 -10z m2013 -7 c-7 -2 -21 -2 -30
0 -10 3 -4 5 12 5 17 0 24 -2 18 -5z m50 -10 c-7 -2 -19 -2 -25 0 -7 3 -2 5
12 5 14 0 19 -2 13 -5z m-1813 -13 c-8 -5 -22 -9 -30 -9 -10 0 -8 3 5 9 27 12
43 12 25 0z m1887 4 c-3 -3 -12 -4 -19 -1 -8 3 -5 6 6 6 11 1 17 -2 13 -5z
m-2034 -11 c-7 -2 -19 -2 -25 0 -7 3 -2 5 12 5 14 0 19 -2 13 -5z m90 -10 c-7
-2 -19 -2 -25 0 -7 3 -2 5 12 5 14 0 19 -2 13 -5z m342 -43 c-11 -5 -29 -8
-40 -8 -16 0 -15 2 5 8 34 11 60 11 35 0z m-98 -26 c-3 -3 -12 -4 -19 -1 -8 3
-5 6 6 6 11 1 17 -2 13 -5z m-52 -14 c-11 -5 -27 -9 -35 -9 -9 0 -8 4 5 9 11
5 27 9 35 9 9 0 8 -4 -5 -9z"/>
</g>
</svg>
